PathFileType	4	(X/Y/Z)	C:/Users/opensim2020/Desktop/walking_exp_matlab/subject02_walking15_straight_02.trc	
DataRate	CameraRate	NumFrames	NumMarkers	Units	OrigDataRate	OrigDataStartFrame	OrigNumFrames	
100.00	100.00	4	42	mm	100.00	941	142	
Frame#	Time	LFHD			RFHD			LBHD			RBHD			C7			T10			CLAV			STRN			RBAK			LSHO			LUPA			LELB			LFRM			LWRA			LWRB			LFIN			RSHO			RUPA			RELB			RFRM			RWRA			RWRB			RFIN			LASI			RASI			LPSI			RPSI			LTHI			LKNE			LTIB			LANK			LHEE			LTOE			RTHI			RKNE			RTIB			RANK			RHEE			RTOE			*39			*40			*41			
		X1	Y1	Z1	X2	Y2	Z2	X3	Y3	Z3	X4	Y4	Z4	X5	Y5	Z5	X6	Y6	Z6	X7	Y7	Z7	X8	Y8	Z8	X9	Y9	Z9	X10	Y10	Z10	X11	Y11	Z11	X12	Y12	Z12	X13	Y13	Z13	X14	Y14	Z14	X15	Y15	Z15	X16	Y16	Z16	X17	Y17	Z17	X18	Y18	Z18	X19	Y19	Z19	X20	Y20	Z20	X21	Y21	Z21	X22	Y22	Z22	X23	Y23	Z23	X24	Y24	Z24	X25	Y25	Z25	X26	Y26	Z26	X27	Y27	Z27	X28	Y28	Z28	X29	Y29	Z29	X30	Y30	Z30	X31	Y31	Z31	X32	Y32	Z32	X33	Y33	Z33	X34	Y34	Z34	X35	Y35	Z35	X36	Y36	Z36	X37	Y37	Z37	X38	Y38	Z38	X39	Y39	Z39	X40	Y40	Z40	X41	Y41	Z41	X42	Y42	Z42	

72	0.710	-958.82080	-2.09817	1751.05200	-1102.13342	2.24032	1736.01978	-947.61420	124.52316	1670.66943	-1090.86597	141.55499	1654.18335	-1014.91998	177.03790	1530.43079	-1025.94653	221.81747	1254.84436	-1012.69891	33.74159	1469.32678	-1028.88013	-22.91831	1299.13501	-1079.82532	235.08989	1356.75183	-839.67090	95.21472	1505.39478	-754.05273	93.85938	1305.78003	-736.10547	92.65193	1165.59656	-723.22021	68.09470	1035.66199	-756.94611	1.47285	916.01611	-720.37689	44.15580	914.74268	-715.22614	17.40099	855.06732	-1202.95459	114.67239	1505.63672	-1297.40833	140.99837	1321.45667	-1329.35535	114.00352	1177.43640	-1346.04834	64.76510	1065.32898	-1319.22632	0.64712	947.20856	-1359.84070	39.29444	937.68762	-1352.17822	-5.10583	879.13745	-909.60602	-10.02356	997.61798	-1160.39795	-3.53279	990.44055	-979.45282	200.01549	1041.24402	-1094.93970	207.21100	1041.59595	-863.79315	55.13384	678.01758	-901.85815	91.64131	477.85367	-908.10321	160.09306	294.09155	-952.92914	172.67294	73.45033	-1006.01953	209.17325	47.52382	-935.68066	18.08083	33.80218	-1252.22485	30.12709	685.98785	-1241.42090	-15.89492	490.80649	-1219.74365	99.76406	349.37497	-1166.20715	193.96478	187.22821	-1096.46375	228.00862	150.07155	-1217.37891	103.87074	65.67068	-1043.32410	105.36549	1814.07520	-3357.41260	2846.09253	1034.31335			 
73	0.720	-958.92712	-15.88621	1750.48889	-1102.05627	-11.51751	1735.36401	-947.47351	111.06287	1670.44006	-1090.75867	127.90379	1653.69739	-1014.70508	163.61150	1530.05640	-1025.65198	209.09346	1254.80347	-1012.62677	20.34418	1468.84485	-1028.40637	-35.78532	1298.43701	-1079.53577	222.02496	1356.68091	-839.60815	81.74605	1505.20630	-754.32788	76.58680	1305.83582	-736.22321	71.92540	1165.25671	-725.49854	41.24928	1035.73657	-761.72455	-29.97056	920.01111	-724.79840	12.26575	916.25085	-720.82043	-16.94911	857.72626	-1203.04785	100.73650	1504.92285	-1297.74683	129.50993	1321.21753	-1328.59497	105.48087	1176.61328	-1345.46289	59.82422	1063.06555	-1317.99927	1.14194	941.64465	-1359.72620	38.80462	934.56287	-1351.13647	-2.30512	873.43567	-908.47156	-20.58187	996.08527	-1158.61279	-16.39920	989.96643	-980.12878	188.19434	1041.08643	-1095.70898	194.91374	1041.68005	-864.22382	48.30594	677.26141	-902.07471	88.15586	477.61548	-908.33563	158.10234	294.45676	-953.21814	172.43625	73.69980	-1006.30194	208.68233	47.82632	-935.52789	18.01567	33.70655	-1252.40845	12.12765	686.97729	-1240.25757	-37.82050	491.90793	-1220.57715	70.93346	343.91187	-1168.39075	157.24802	177.04488	-1099.03357	190.20352	137.54831	-1218.58167	59.33621	61.48576	-1043.55432	91.46755	1813.73938	-3357.43604	2845.87598	1034.46472			 
74	0.730	-958.84058	-29.68575	1749.69812	-1102.08704	-25.25115	1734.45972	-947.46143	97.29211	1669.70740	-1090.72778	114.26358	1653.00696	-1014.69727	149.94688	1529.60730	-1025.55872	196.40846	1254.58081	-1012.67230	7.11262	1467.91675	-1028.09314	-48.62405	1297.36987	-1079.79150	208.96436	1356.72546	-839.61499	68.14993	1504.68494	-754.41656	59.53653	1305.72156	-736.45795	50.99817	1164.91833	-727.44354	15.13553	1036.54370	-766.59381	-61.02308	924.79071	-729.19055	-18.98762	918.09369	-726.64929	-51.37093	861.02667	-1203.36340	86.93509	1503.87805	-1297.37817	118.07319	1320.42175	-1327.64783	97.06448	1175.42786	-1344.71753	54.99065	1060.65833	-1316.97607	1.37625	936.37665	-1359.77881	38.33210	931.58868	-1350.38342	0.38682	868.21460	-907.44684	-31.08742	994.51160	-1157.00098	-29.73540	989.37903	-980.95715	176.44241	1040.80383	-1096.63635	182.53964	1041.42615	-864.58081	41.58173	676.60187	-902.33246	84.48953	477.30429	-908.72900	156.27921	294.83743	-953.52081	172.15300	73.97135	-1006.73560	208.87454	48.12164	-935.37622	17.94205	33.65777	-1252.52844	-5.76246	687.78491	-1239.00830	-59.18498	492.49548	-1221.67688	42.02069	338.20212	-1170.90112	119.91640	166.56044	-1102.31458	151.43318	124.70493	-1220.24854	14.23401	57.87738	-1043.58569	77.68275	1812.90381	-3357.42847	2846.04761	1034.38452			 
75	0.740	-959.10077	-43.70891	1748.78357	-1102.18018	-39.02295	1733.29285	-947.55865	83.47187	1668.99756	-1090.70996	100.55490	1652.03613	-1014.66284	136.28566	1528.89612	-1025.61633	183.56023	1253.99524	-1012.80084	-6.44556	1466.76880	-1027.89966	-61.50597	1295.93225	-1079.71765	195.84431	1356.21021	-839.72833	54.30648	1503.89758	-754.58771	42.57432	1305.37280	-736.42322	30.74615	1164.44312	-729.89056	-10.76877	1036.87390	-771.20172	-91.99897	929.98883	-733.99243	-50.35543	920.47327	-732.44537	-85.34942	865.13770	-1203.53931	72.94117	1502.74084	-1297.25635	106.89856	1319.48218	-1326.77844	88.76421	1174.06787	-1344.10803	50.28869	1058.19360	-1316.50000	0.89910	932.16693	-1359.81055	37.78403	928.63092	-1350.09021	3.09928	863.40112	-906.19733	-42.27429	992.86530	-1155.89014	-42.98244	988.23254	-981.92651	164.56528	1040.27979	-1097.74084	170.13333	1040.82886	-864.99567	34.64517	675.76678	-902.60437	80.70271	476.99390	-909.33661	154.50136	295.34628	-953.86768	171.90953	74.28623	-1007.08698	207.63847	47.93582	-935.22070	17.93977	33.58250	-1252.54285	-23.47548	688.39368	-1237.99670	-79.82434	492.89841	-1223.08386	13.02683	332.24536	-1174.05444	81.82948	156.29262	-1106.04346	111.74064	112.01295	-1222.43274	-31.40893	55.13106	-1043.65625	63.79397	1811.95850	-3357.17920	2846.03125	1034.49036			 
